# Blender 3.4.1
# www.blender.org
mtllib Soda Can.mtl
o Cylinder
v -0.000000 -0.935957 -0.394138
v 0.278698 -0.935957 -0.278698
v 0.394138 -0.935957 0.000000
v 0.278698 -0.935957 0.278698
v -0.000000 -0.935957 0.394138
v -0.278698 -0.935957 0.278698
v -0.394138 -0.935957 0.000000
v -0.278698 -0.935957 -0.278698
v -0.000000 -0.895582 -0.630732
v -0.000000 0.746821 -0.630732
v 0.445995 0.746821 -0.445995
v 0.445995 -0.895582 -0.445995
v 0.630732 0.746821 0.000000
v 0.630732 -0.895582 0.000000
v 0.445995 0.746821 0.445995
v 0.445995 -0.895582 0.445995
v -0.000000 0.746821 0.630732
v -0.000000 -0.895582 0.630732
v -0.445995 0.746821 0.445995
v -0.445995 -0.895582 0.445995
v -0.630732 0.746821 0.000000
v -0.630732 -0.895582 0.000000
v -0.445995 0.746821 -0.445995
v -0.445995 -0.895582 -0.445995
v -0.000000 0.945308 -0.540735
v 0.382357 0.945308 -0.382357
v 0.540735 0.945308 0.000000
v 0.382357 0.945308 0.382357
v -0.000000 0.945308 0.540735
v -0.382357 0.945308 0.382357
v -0.540735 0.945308 0.000000
v -0.382357 0.945308 -0.382357
v 0.402044 1.000000 -0.402044
v -0.000000 1.000000 -0.568575
v 0.568575 1.000000 0.000000
v 0.402044 1.000000 0.402044
v -0.000000 1.000000 0.568575
v -0.402044 1.000000 0.402044
v -0.568575 1.000000 0.000000
v -0.402044 1.000000 -0.402044
v 0.376590 1.000000 -0.376590
v -0.000000 1.000000 -0.532578
v 0.532578 1.000000 0.000000
v 0.376590 1.000000 0.376590
v -0.000000 1.000000 0.532578
v -0.376590 1.000000 0.376590
v -0.532578 1.000000 0.000000
v -0.376590 1.000000 -0.376590
v -0.000000 0.900037 -0.412615
v -0.291763 0.933256 -0.291763
v -0.412615 0.933256 0.000000
v 0.291763 0.900037 -0.291763
v -0.291763 0.933256 0.291763
v 0.412615 0.900037 0.000000
v 0.000000 0.933256 0.412615
v 0.291763 0.900037 0.291763
v 0.291763 0.933256 0.291763
v -0.000000 0.900037 0.412615
v 0.412615 0.933256 0.000000
v -0.291763 0.900037 0.291763
v 0.000000 0.933256 -0.412615
v -0.412615 0.900037 0.000000
v 0.291763 0.933256 -0.291763
v -0.291763 0.900037 -0.291763
v -0.000000 -1.000000 -0.540735
v 0.382357 -1.000000 -0.382357
v 0.540735 -1.000000 0.000000
v 0.382357 -1.000000 0.382357
v -0.000000 -1.000000 0.540735
v -0.382357 -1.000000 0.382357
v -0.540735 -1.000000 0.000000
v -0.382357 -1.000000 -0.382357
v 0.336868 -1.000000 -0.336868
v -0.000000 -1.000000 -0.476404
v 0.476404 -1.000000 0.000000
v 0.336868 -1.000000 0.336868
v -0.000000 -1.000000 0.476404
v -0.336868 -1.000000 0.336868
v -0.476404 -1.000000 0.000000
v -0.336868 -1.000000 -0.336868
v -0.036063 0.933256 0.051222
v -0.079925 0.933256 0.029291
v 0.079925 0.933256 0.029291
v 0.036063 0.933256 0.051222
v -0.079925 0.933256 -0.302458
v -0.036063 0.933256 -0.324389
v 0.036063 0.933256 -0.324389
v 0.079925 0.933256 -0.302458
v -0.036063 0.977062 -0.324389
v -0.079925 0.977062 -0.302458
v -0.079925 0.977062 0.029291
v -0.036063 0.977062 0.051222
v 0.036063 0.977062 0.051222
v 0.079925 0.977062 0.029291
v 0.079925 0.977062 -0.302458
v 0.036063 0.977062 -0.324389
v -0.045734 0.933256 -0.365356
v -0.120892 0.933256 -0.327777
v -0.120892 0.977062 -0.327777
v -0.045734 0.977062 -0.365356
v 0.045734 0.977062 -0.365356
v 0.120892 0.977062 -0.327777
v 0.120892 0.933256 -0.327777
v 0.045734 0.933256 -0.365356
v 0.045734 0.933256 0.092189
v 0.120892 0.933256 0.054610
v 0.120892 0.977062 0.054610
v 0.045734 0.977062 0.092189
v -0.045734 0.977062 0.092189
v -0.120892 0.977062 0.054610
v -0.120892 0.933256 0.054610
v -0.045734 0.933256 0.092189
v -0.079925 0.933256 -0.106940
v 0.079925 0.933256 -0.106940
v 0.079925 0.933256 -0.219753
v -0.079925 0.977062 -0.219753
v -0.079925 0.977062 -0.106940
v 0.079925 0.977062 -0.106940
v -0.079925 0.933256 -0.219753
v 0.079925 0.977062 -0.219753
v 0.036063 0.977062 -0.128871
v -0.036063 0.977062 -0.128871
v 0.036063 0.933256 -0.128871
v -0.036063 0.933256 -0.128871
v -0.036063 0.933256 0.051222
v 0.036063 0.933256 0.051222
v -0.036063 0.955159 0.051222
v 0.036063 0.955159 0.051222
v 0.036063 0.933256 -0.044236
v -0.036063 0.933256 -0.044236
v 0.036063 0.944208 -0.044236
v -0.036063 0.944208 -0.044236
v -0.017952 0.955159 -0.017952
v -0.017952 0.944208 -0.017952
v -0.017952 0.955159 0.017952
v -0.017952 0.944208 0.017952
v 0.017952 0.944208 0.017952
v 0.017952 0.955159 0.017952
v 0.017952 0.944208 -0.017952
v 0.017952 0.955159 -0.017952
vn 0.3463 -0.4256 -0.8360
vn 0.8360 -0.4256 -0.3463
vn 0.8360 -0.4256 0.3463
vn 0.3463 -0.4256 0.8360
vn -0.3463 -0.4256 0.8360
vn -0.8360 -0.4256 0.3463
vn 0.2563 0.7426 0.6188
vn -0.8360 -0.4256 -0.3463
vn -0.3463 -0.4256 -0.8360
vn -0.0000 -1.0000 -0.0000
vn -0.2994 -0.6229 -0.7227
vn -0.3827 -0.0000 -0.9239
vn -0.7227 -0.6229 -0.2994
vn -0.9239 -0.0000 -0.3827
vn -0.7227 -0.6229 0.2994
vn -0.9239 -0.0000 0.3827
vn -0.2994 -0.6229 0.7227
vn -0.3827 -0.0000 0.9239
vn 0.2994 -0.6229 0.7227
vn 0.3827 -0.0000 0.9239
vn 0.7227 -0.6229 0.2994
vn 0.9239 -0.0000 0.3827
vn 0.7227 -0.6229 -0.2994
vn 0.9239 -0.0000 -0.3827
vn 0.2994 -0.6229 -0.7227
vn 0.3827 -0.0000 -0.9239
vn -0.3530 0.3864 -0.8521
vn -0.8521 0.3864 -0.3530
vn -0.8521 0.3864 0.3530
vn -0.3530 0.3864 0.8521
vn 0.3530 0.3864 0.8521
vn 0.8521 0.3864 0.3530
vn 0.8521 0.3864 -0.3530
vn 0.3530 0.3864 -0.8521
vn -0.0000 1.0000 -0.0000
vn -0.6188 0.7426 -0.2563
vn -0.2563 0.7426 -0.6188
vn 0.2563 0.7426 -0.6188
vn 0.6188 0.7426 -0.2563
vn 0.6188 0.7426 0.2563
vn -0.6188 0.7426 0.2563
vn -0.2563 0.7426 0.6188
vn 0.2466 -0.7647 0.5953
vn 0.5953 -0.7647 0.2466
vn 0.5953 -0.7647 -0.2466
vn 0.2466 -0.7647 -0.5953
vn -0.2466 -0.7647 -0.5953
vn -0.5953 -0.7647 -0.2466
vn -0.5953 -0.7647 0.2466
vn -0.2466 -0.7647 0.5953
vn -0.0000 -0.0000 1.0000
vn 0.4472 -0.0000 -0.8944
vn 1.0000 -0.0000 -0.0000
vn -0.0000 -0.0000 -1.0000
vn -0.4472 -0.0000 -0.8944
vn 0.4472 -0.0000 0.8944
vn -0.4472 -0.0000 0.8944
vn -1.0000 -0.0000 -0.0000
vn -0.0000 0.9935 -0.1140
vt 0.756700 0.503259
vt 0.306206 0.545570
vt 0.382575 0.449259
vt 0.756700 0.579628
vt 0.450729 0.523258
vt 0.306206 0.449259
vt 0.702700 0.633628
vt 0.733779 0.655940
vt 0.527098 0.523258
vt 0.626331 0.633628
vt 0.527098 0.545570
vt 0.657411 0.655940
vt 0.572331 0.579628
vt 0.965923 0.681403
vt 0.450729 0.545570
vt 0.572331 0.503259
vt 0.382575 0.641881
vt 0.889554 0.681403
vt 0.626331 0.449259
vt 0.527097 0.641881
vt 0.306206 0.641881
vt 0.702700 0.449259
vt 0.382575 0.545570
vt 0.450729 0.641881
vt 0.283285 0.619569
vt 0.405496 0.523258
vt 0.500000 0.011156
vt 0.500000 0.426947
vt 0.260973 0.876488
vt 0.756700 0.912859
vt 0.377789 0.426947
vt 0.866633 0.916010
vt 0.634489 0.912859
vt 0.427808 0.449259
vt 0.283285 0.523258
vt 0.377789 0.011156
vt 0.255578 0.426947
vt 0.427808 0.960010
vt 0.988844 0.916010
vt 0.756700 0.729939
vt 0.550019 0.449259
vt 0.255578 0.011156
vt 0.133367 0.426947
vt 0.756700 0.836067
vt 0.550019 0.960010
vt 0.550019 0.619569
vt 0.634489 0.729939
vt 0.133367 0.011156
vt 0.988844 0.426947
vt 0.011156 0.426947
vt 0.138762 0.953280
vt 0.634489 0.836067
vt 0.988844 0.755402
vt 0.988844 0.011156
vt 0.427808 0.619569
vt 0.011156 0.011156
vt 0.866633 0.426947
vt 0.283285 0.876488
vt 0.260973 0.953280
vt 0.405496 0.715880
vt 0.866633 0.755402
vt 0.866633 0.011156
vt 0.744422 0.426947
vt 0.405496 0.898800
vt 0.405496 0.876488
vt 0.550019 0.715880
vt 0.283285 0.715880
vt 0.744422 0.011156
vt 0.622211 0.426947
vt 0.138762 0.876488
vt 0.283285 0.898800
vt 0.405496 0.619569
vt 0.427808 0.715880
vt 0.622211 0.011156
vt 0.258276 0.616891
vt 0.153503 0.449259
vt 0.252254 0.822008
vt 0.747981 0.967339
vt 0.153503 0.616891
vt 0.881374 0.839218
vt 0.875352 0.861530
vt 0.643208 0.967339
vt 0.986147 0.839218
vt 0.270320 0.738191
vt 0.436527 0.905530
vt 0.980125 0.861530
vt 0.165546 0.738191
vt 0.547322 0.821713
vt 0.747981 0.890547
vt 0.541300 0.905530
vt 0.442549 0.821713
vt 0.298026 0.799696
vt 0.147481 0.898800
vt 0.643208 0.890547
vt 0.402799 0.799696
vt 0.153503 0.594580
vt 0.292004 0.822008
vt 0.252254 0.898800
vt 0.258276 0.594580
vt 0.649230 0.813756
vt 0.396777 0.953280
vt 0.396777 0.822008
vt 0.754003 0.813756
vt 0.258276 0.449259
vt 0.147481 0.822008
vt 0.292004 0.953280
vt 0.150806 0.632192
vt 0.878677 0.823918
vt 0.260973 0.632192
vt 0.150806 0.464559
vt 0.988844 0.823918
vt 0.273017 0.753492
vt 0.162849 0.753492
vt 0.550019 0.837014
vt 0.439851 0.837014
vt 0.295329 0.784396
vt 0.405496 0.784396
vt 0.150806 0.579279
vt 0.260973 0.579279
vt 0.646533 0.798455
vt 0.756700 0.798455
vt 0.260973 0.464559
vt 0.882164 0.815498
vt 0.154293 0.640611
vt 0.154293 0.472979
vt 0.257486 0.640611
vt 0.269529 0.761911
vt 0.985357 0.815498
vt 0.166337 0.761911
vt 0.546531 0.845433
vt 0.443339 0.845433
vt 0.298816 0.775976
vt 0.402008 0.775976
vt 0.154293 0.570860
vt 0.257486 0.570860
vt 0.650020 0.790036
vt 0.257486 0.472979
vt 0.753213 0.790036
vt 0.165915 0.510763
vt 0.781475 0.508254
vt 0.779012 0.514201
vt 0.245864 0.678396
vt 0.843954 0.457668
vt 0.923902 0.457668
vt 0.893786 0.777714
vt 0.779012 0.594149
vt 0.781475 0.600096
vt 0.165915 0.678396
vt 0.980434 0.514201
vt 0.257907 0.799696
vt 0.973735 0.777714
vt 0.843954 0.659091
vt 0.838007 0.656628
vt 0.980434 0.594149
vt 0.177959 0.799696
vt 0.534909 0.883218
vt 0.929849 0.656628
vt 0.923902 0.659091
vt 0.923902 0.650681
vt 0.454961 0.883218
vt 0.310438 0.738192
vt 0.986381 0.600096
vt 0.988844 0.594149
vt 0.843954 0.650681
vt 0.390386 0.738192
vt 0.165915 0.533075
vt 0.986381 0.508254
vt 0.988844 0.514201
vt 0.787422 0.514201
vt 0.245864 0.533075
vt 0.661642 0.752251
vt 0.923902 0.449259
vt 0.929849 0.451722
vt 0.787422 0.594149
vt 0.245864 0.510763
vt 0.741591 0.752251
vt 0.843954 0.449259
vt 0.838007 0.451722
vt 0.396777 0.489466
vt 0.292004 0.585777
vt 0.292004 0.489466
vt 0.436527 0.483050
vt 0.541300 0.483050
vt 0.747981 0.696148
vt 0.643208 0.696148
vt 0.541300 0.585777
vt 0.436527 0.585777
vt 0.980125 0.721610
vt 0.875352 0.721610
vt 0.396777 0.682088
vt 0.292004 0.682088
vt 0.541300 0.682088
vt 0.436527 0.682088
vt 0.396777 0.585777
vt 0.442759 0.498097
vt 0.298236 0.474420
vt 0.298237 0.570731
vt 0.390545 0.474420
vt 0.741749 0.681101
vt 0.535067 0.498097
vt 0.535067 0.570731
vt 0.649441 0.681101
vt 0.973893 0.706564
vt 0.442759 0.570731
vt 0.390545 0.667042
vt 0.881584 0.706564
vt 0.535067 0.667042
vt 0.298236 0.667042
vt 0.390545 0.570731
vt 0.442759 0.667042
vt 0.831907 0.732274
vt 0.844321 0.732274
vt 0.141856 0.711798
vt 0.801232 0.732274
vt 0.140538 0.738192
vt 0.813647 0.732274
vt 0.057871 0.711798
vt 0.581132 0.785653
vt 0.593547 0.785653
vt 0.611806 0.785653
vt 0.056552 0.738192
vt 0.624221 0.785653
vt 0.444558 0.759667
vt 0.593547 0.796743
vt 0.057871 0.700708
vt 0.450110 0.748563
vt 0.581132 0.796743
vt 0.844321 0.743364
vt 0.141856 0.700708
vt 0.534096 0.748563
vt 0.539648 0.759667
vt 0.831907 0.743364
vt 0.539648 0.777926
vt 0.813647 0.743364
vt 0.534096 0.789030
vt 0.801232 0.743364
vt 0.140538 0.749281
vt 0.450110 0.789030
vt 0.056552 0.749281
vt 0.624221 0.796743
vt 0.444558 0.777926
vt 0.611806 0.796743
vt 0.835092 0.777714
vt 0.856365 0.777714
vt 0.988844 0.949412
vt 0.856365 0.788804
vt 0.988844 0.938322
vt 0.443700 0.738192
vt 0.835092 0.788804
vt 0.434187 0.757218
vt 0.811936 0.788804
vt 0.434187 0.780374
vt 0.164168 0.700708
vt 0.790663 0.788804
vt 0.443700 0.799401
vt 0.164168 0.711798
vt 0.790663 0.777714
vt 0.811936 0.777714
vt 0.811936 0.822205
vt 0.260973 0.711798
vt 0.790663 0.822205
vt 0.260973 0.700708
vt 0.790663 0.811115
vt 0.540505 0.799401
vt 0.811936 0.811115
vt 0.550019 0.780374
vt 0.835092 0.811115
vt 0.550019 0.757218
vt 0.856365 0.811115
vt 0.892039 0.938322
vt 0.540505 0.738192
vt 0.856365 0.822205
vt 0.892039 0.949412
vt 0.835092 0.822205
vt 0.581132 0.752251
vt 0.624221 0.752251
vt 0.831131 0.855607
vt 0.803854 0.709962
vt 0.790663 0.844517
vt 0.803854 0.681403
vt 0.581132 0.763341
vt 0.624221 0.763341
vt 0.844321 0.681403
vt 0.790663 0.855607
vt 0.844321 0.709962
vt 0.831131 0.844517
vt 0.611806 0.763341
vt 0.833217 0.686955
vt 0.593547 0.763341
vt 0.814958 0.686955
vt 0.611806 0.752251
vt 0.593547 0.752251
vt 0.588011 0.729913
vt 0.588011 0.696511
vt 0.612177 0.655940
vt 0.588011 0.724368
vt 0.612177 0.674199
vt 0.588011 0.702056
vt 0.599391 0.821827
vt 0.612177 0.696511
vt 0.581132 0.821827
vt 0.612177 0.729913
vt 0.599391 0.819054
vt 0.587853 0.674199
vt 0.612177 0.699284
vt 0.581132 0.819054
vt 0.587853 0.655940
vt 0.612177 0.727140
vt 0.128494 0.449259
vt 0.590302 0.875540
vt 0.599391 0.853228
vt 0.128494 0.452031
vt 0.590302 0.878313
vt 0.119404 0.449259
vt 0.131448 0.799450
vt 0.590302 0.853228
vt 0.119405 0.452031
vt 0.131448 0.796677
vt 0.131448 0.771593
vt 0.140537 0.796677
vt 0.131448 0.774366
vt 0.140538 0.799450
vt 0.590302 0.844139
vt 0.599391 0.878313
vt 0.140537 0.771593
vt 0.599391 0.875540
vt 0.140538 0.774366
vt 0.599391 0.844139
s 0
usemtl Material
f 25/75/1 34/109/1 33/107/1 26/79/1
f 26/80/2 33/108/2 35/111/2 27/83/2
f 27/84/3 35/112/3 36/113/3 28/87/3
f 28/88/4 36/114/4 37/115/4 29/91/4
f 29/92/5 37/116/5 38/117/5 30/95/5
f 30/96/6 38/118/6 39/119/6 31/99/6
f 64/175/7 49/139/7 42/125/7 48/137/7
f 31/100/8 39/120/8 40/121/8 32/103/8
f 32/104/9 40/122/9 34/110/9 25/76/9
f 1/1/10 2/4/10 3/7/10 4/10/10 5/13/10 6/16/10 7/19/10 8/22/10
f 72/194/11 24/72/11 9/25/11 65/180/11
f 24/74/12 23/69/12 10/28/12 9/27/12
f 71/192/13 22/66/13 24/73/13 72/193/13
f 22/68/14 21/63/14 23/69/14 24/74/14
f 70/190/15 20/60/15 22/67/15 71/191/15
f 20/62/16 19/57/16 21/63/16 22/68/16
f 69/188/17 18/53/17 20/61/17 70/189/17
f 18/54/18 17/49/18 19/57/18 20/62/18
f 68/186/19 16/46/19 18/55/19 69/187/19
f 16/48/20 15/43/20 17/50/20 18/56/20
f 67/184/21 14/40/21 16/47/21 68/185/21
f 14/42/22 13/37/22 15/43/22 16/48/22
f 66/182/23 12/34/23 14/41/23 67/183/23
f 12/36/24 11/31/24 13/37/24 14/42/24
f 65/179/25 9/26/25 12/35/25 66/181/25
f 9/27/26 10/28/26 11/31/26 12/36/26
f 23/70/27 32/105/27 25/77/27 10/29/27
f 21/64/28 31/101/28 32/106/28 23/71/28
f 19/58/29 30/97/29 31/102/29 21/65/29
f 17/51/30 29/93/30 30/98/30 19/59/30
f 15/44/31 28/89/31 29/94/31 17/52/31
f 13/38/32 27/85/32 28/90/32 15/45/32
f 11/32/33 26/81/33 27/86/33 13/39/33
f 10/30/34 25/78/34 26/82/34 11/33/34
f 42/126/35 41/124/35 33/107/35 34/109/35
f 41/123/35 43/128/35 35/111/35 33/108/35
f 43/127/35 44/129/35 36/113/35 35/112/35
f 44/130/35 45/131/35 37/115/35 36/114/35
f 45/132/35 46/133/35 38/117/35 37/116/35
f 46/134/35 47/135/35 39/119/35 38/118/35
f 47/136/35 48/138/35 40/121/35 39/120/35
f 48/137/35 42/125/35 34/110/35 40/122/35
f 54/150/36 56/155/36 44/129/36 43/127/36
f 56/156/37 58/160/37 45/131/37 44/130/37
f 58/161/38 60/165/38 46/133/38 45/132/38
f 60/166/39 62/170/39 47/135/39 46/134/39
f 62/171/40 64/176/40 48/138/40 47/136/40
f 64/177/14 62/172/14 51/144/14 50/143/14
f 52/145/41 54/151/41 43/128/41 41/123/41
f 58/162/20 56/157/20 57/159/20 55/154/20
f 49/140/12 64/178/12 50/143/12 61/169/12
f 62/173/16 60/167/16 53/149/16 51/144/16
f 56/158/22 54/152/22 59/164/22 57/159/22
f 52/146/26 49/141/26 61/169/26 63/174/26
f 60/168/18 58/163/18 55/154/18 53/149/18
f 54/153/24 52/147/24 63/174/24 59/164/24
f 50/143/35 51/144/35 53/149/35 55/154/35 57/159/35 59/164/35 63/174/35 61/169/35
f 49/142/42 52/148/42 41/124/42 42/126/42
f 73/196/10 74/198/10 65/179/10 66/181/10
f 75/200/10 73/195/10 66/182/10 67/183/10
f 76/202/10 75/199/10 67/184/10 68/185/10
f 77/204/10 76/201/10 68/186/10 69/187/10
f 78/206/10 77/203/10 69/188/10 70/189/10
f 79/208/10 78/205/10 70/190/10 71/191/10
f 80/210/10 79/207/10 71/192/10 72/193/10
f 74/197/10 80/209/10 72/194/10 65/180/10
f 1/2/43 8/23/43 80/209/43 74/197/43
f 8/24/44 7/20/44 79/207/44 80/210/44
f 7/21/45 6/17/45 78/205/45 79/208/45
f 6/18/46 5/14/46 77/203/46 78/206/46
f 5/15/47 4/11/47 76/201/47 77/204/47
f 4/12/48 3/8/48 75/199/48 76/202/48
f 3/9/49 2/5/49 73/195/49 75/200/49
f 2/6/50 1/3/50 74/198/50 73/196/50
f 112/274/51 105/259/51 108/265/51 109/267/51
f 91/228/52 92/232/52 81/211/52 82/212/52
f 106/260/53 103/256/53 102/253/53 107/262/53
f 104/258/54 97/243/54 100/249/54 101/251/54
f 90/225/53 91/229/53 82/213/53 85/217/53
f 98/244/55 99/246/55 100/249/55 97/243/55
f 102/254/52 103/257/52 104/258/52 101/251/52
f 106/261/56 107/263/56 108/265/56 105/259/56
f 110/269/57 111/272/57 112/274/57 109/267/57
f 98/245/58 111/273/58 110/270/58 99/247/58
f 90/226/35 89/223/35 100/250/35 99/248/35
f 96/241/35 95/238/35 102/255/35 101/252/35
f 94/235/35 93/233/35 108/266/35 107/264/35
f 92/231/35 91/230/35 110/271/35 109/268/35
f 91/230/35 90/226/35 99/248/35 110/271/35
f 93/233/35 92/231/35 109/268/35 108/266/35
f 95/238/35 94/235/35 107/264/35 102/255/35
f 89/223/35 96/241/35 101/252/35 100/250/35
f 92/232/54 93/234/54 84/216/54 81/211/54
f 93/234/55 94/236/55 83/214/55 84/216/55
f 94/237/58 95/239/58 88/221/58 83/215/58
f 95/240/57 96/242/57 87/220/57 88/222/57
f 96/242/51 89/224/51 86/219/51 87/220/51
f 89/224/56 90/227/56 85/218/56 86/219/56
f 116/278/35 117/280/35 122/290/35
f 122/289/56 117/281/56 113/275/56 124/292/56
f 118/282/57 121/287/57 123/291/57 114/276/57
f 121/287/51 122/289/51 124/292/51 123/291/51
f 120/285/35 121/288/35 118/283/35
f 120/285/35 116/278/35 122/290/35 121/288/35
f 115/277/54 119/284/54 116/279/54 120/286/54
f 132/306/54 131/303/54 129/299/54 130/301/54
f 127/295/59 128/297/59 131/304/59 132/307/59
f 125/293/58 127/296/58 132/308/58 130/302/58
f 128/298/53 126/294/53 129/300/53 131/305/53
f 136/317/58 135/314/58 133/309/58 134/312/58
f 134/313/54 133/310/54 140/326/54 139/324/54
f 139/325/53 140/327/53 138/321/53 137/319/53
f 137/320/51 138/322/51 135/315/51 136/318/51
f 140/328/35 133/311/35 135/316/35 138/323/35
